<!-- AI-Generated Asset: surface-materials-icon
Generated: 2025-09-02T13:37:54.242Z
Category: icon
AI Model: gemini-2.5-flash-image-preview
Description: Surfaces/materials icon for textures and finishes
-->
<svg width="32" height="32" viewBox="0 0 24 24" xmlns="http://www.w3.org/2000/svg">
  <path d="M2 22L22 2M22 22L2 2" stroke="#C9A98C" stroke-width="2" stroke-linecap="round"/><path d="M12 2C6.48 2 2 6.48 2 12C2 17.52 6.48 22 12 22C17.52 22 22 17.52 22 12C22 6.48 17.52 2 12 2ZM4 12C4 7.58 7.58 4 12 4C16.42 4 20 7.58 20 12C20 16.42 16.42 20 12 20C7.58 20 4 16.42 4 12Z" fill="#C9A98C"/>
</svg>