<!-- AI-Generated Asset: bathroom-icon
Generated: 2025-09-02T13:38:15.196Z
Category: icon
AI Model: gemini-2.5-flash-image-preview
Description: Spa-like bathroom icon
-->
<svg width="48" height="48" viewBox="0 0 24 24" xmlns="http://www.w3.org/2000/svg">
  <path d="M20 6h-2V4c0-1.1-.9-2-2-2H8c-1.1 0-2 .9-2 2v2H4c-1.1 0-2 .9-2 2v12c0 1.1.9 2 2 2h16c1.1 0 2-.9 2-2V8c0-1.1-.9-2-2-2zM8 4h8v2H8V4zm12 16H4V8h16v12zm-4-4h-4v-4h4v4z" fill="#C9A98C"/><path d="M12 11c1.66 0 3-1.34 3-3V5h-2v3c0 .55-.45 1-1 1s-1-.45-1-1V5H9v3c0 1.66 1.34 3 3 3z" fill="#C9A98C"/>
</svg>