<!-- AI-Generated Asset: dining-room-icon
Generated: 2025-09-02T13:38:18.152Z
Category: icon
AI Model: gemini-2.5-flash-image-preview
Description: Sophisticated dining room icon
-->
<svg width="48" height="48" viewBox="0 0 24 24" xmlns="http://www.w3.org/2000/svg">
  <path d="M22 13.5V10c0-1.1-.9-2-2-2H4c-1.1 0-2 .9-2 2v3.5c0 .8.6 1.5 1.4 1.5H4v4c0 .6.4 1 1 1h1c.6 0 1-.4 1-1v-4h10v4c0 .6.4 1 1 1h1c.6 0 1-.4 1-1v-4h.6c.8 0 1.4-.7 1.4-1.5zM4 10h16v3H4v-3zm1 8v-2h2v2H5zm12 0v-2h2v2h-2z" fill="#C9A98C"/>
</svg>