<!-- AI-Generated Asset: home-office-icon
Generated: 2025-09-02T13:38:21.458Z
Category: icon
AI Model: gemini-2.5-flash-image-preview
Description: Professional home office icon
-->
<svg width="48" height="48" viewBox="0 0 24 24" xmlns="http://www.w3.org/2000/svg">
  <path d="M20 3H4C2.89543 3 2 3.89543 2 5V19C2 20.1046 2.89543 21 4 21H20C21.1046 21 22 20.1046 22 19V5C22 3.89543 21.1046 3 20 3ZM12 5H20V15H12V5ZM4 5H10V19H4V5ZM14 17H18V19H14V17Z" fill="#C9A98C"/>
<path d="M15 7H17V9H15V7Z" fill="#C9A98C"/>
<path d="M15 11H17V13H15V11Z" fill="#C9A98C"/>
<path d="M6 7H8V9H6V7Z" fill="#C9A98C"/>
<path d="M6 11H8V13H6V11Z" fill="#C9A98C"/>
<path d="M6 15H8V17H6V15Z" fill="#C9A98C"/>
</svg>