<svg width="120" height="120" viewBox="0 0 120 120" fill="none" xmlns="http://www.w3.org/2000/svg">
  <!-- Contemporary Style Illustration -->
  <defs>
    <linearGradient id="contemporaryGradient" x1="0%" y1="0%" x2="100%" y2="100%">
      <stop offset="0%" style="stop-color:#1E293B;stop-opacity:1" />
      <stop offset="100%" style="stop-color:#475569;stop-opacity:1" />
    </linearGradient>
  </defs>
  
  <!-- Background Circle -->
  <circle cx="60" cy="60" r="58" fill="url(#contemporaryGradient)" stroke="#64748B" stroke-width="2"/>
  
  <!-- Sleek contemporary sofa -->
  <path d="M25 50 Q25 45 30 45 L85 45 Q90 45 90 50 L90 72 Q90 77 85 77 L30 77 Q25 77 25 72 Z" fill="#FFFFFF" opacity="0.9"/>
  <rect x="25" y="72" width="65" height="5" rx="2" fill="#F1F5F9"/>
  
  <!-- Floating coffee table -->
  <rect x="40" y="83" width="35" height="6" rx="3" fill="#E2E8F0" opacity="0.8"/>
  <rect x="45" y="83" width="3" height="8" rx="1.5" fill="#64748B" opacity="0.6"/>
  <rect x="67" y="83" width="3" height="8" rx="1.5" fill="#64748B" opacity="0.6"/>
  
  <!-- Modern artwork -->
  <rect x="20" y="20" width="25" height="18" rx="2" fill="#FFFFFF" opacity="0.6"/>
  <rect x="22" y="22" width="8" height="14" fill="#3B82F6" opacity="0.7"/>
  <rect x="32" y="25" width="6" height="8" fill="#EF4444" opacity="0.7"/>
  <rect x="39" y="22" width="4" height="11" fill="#10B981" opacity="0.7"/>
  
  <!-- Contemporary lighting -->
  <circle cx="75" cy="25" r="7" fill="#F8FAFC" opacity="0.8"/>
  <rect x="73" y="18" width="4" height="5" rx="2" fill="#64748B" opacity="0.7"/>
  <line x1="75" y1="18" x2="75" y2="12" stroke="#94A3B8" stroke-width="2"/>
  
  <!-- Accent colors -->
  <rect x="85" y="55" width="8" height="12" rx="2" fill="#06B6D4" opacity="0.6"/>
  <circle cx="20" cy="85" r="5" fill="#F59E0B" opacity="0.7"/>
  
  <!-- Clean geometric elements -->
  <line x1="95" y1="75" x2="110" y2="75" stroke="#E2E8F0" stroke-width="2" opacity="0.6"/>
  <line x1="95" y1="80" x2="105" y2="80" stroke="#E2E8F0" stroke-width="1" opacity="0.4"/>
  
  <!-- Contemporary patterns -->
  <circle cx="15" cy="55" r="2" fill="#E2E8F0" opacity="0.5"/>
  <circle cx="95" cy="40" r="1.5" fill="#E2E8F0" opacity="0.5"/>
</svg>