<svg width="120" height="120" viewBox="0 0 120 120" fill="none" xmlns="http://www.w3.org/2000/svg">
  <!-- Eclectic Style Illustration -->
  <defs>
    <linearGradient id="eclecticGradient" x1="0%" y1="0%" x2="100%" y2="100%">
      <stop offset="0%" style="stop-color:#F59E0B;stop-opacity:1" />
      <stop offset="25%" style="stop-color:#EF4444;stop-opacity:1" />
      <stop offset="50%" style="stop-color:#8B5CF6;stop-opacity:1" />
      <stop offset="75%" style="stop-color:#06B6D4;stop-opacity:1" />
      <stop offset="100%" style="stop-color:#10B981;stop-opacity:1" />
    </linearGradient>
  </defs>
  
  <!-- Background Circle -->
  <circle cx="60" cy="60" r="58" fill="url(#eclecticGradient)" stroke="#E5E7EB" stroke-width="2"/>
  
  <!-- Mix of furniture styles -->
  <!-- Vintage sofa -->
  <path d="M25 50 Q20 45 25 40 L70 40 Q75 40 75 45 L75 70 Q75 75 70 75 L25 75 Q20 75 25 70 Z" fill="#FFFFFF" opacity="0.8"/>
  
  <!-- Modern chair -->
  <rect x="80" y="45" width="15" height="25" rx="3" fill="#FEF3C7" opacity="0.9"/>
  <rect x="82" y="70" width="3" height="15" rx="1.5" fill="#F59E0B" opacity="0.7"/>
  <rect x="91" y="70" width="3" height="15" rx="1.5" fill="#F59E0B" opacity="0.7"/>
  
  <!-- Eclectic coffee table -->
  <ellipse cx="50" cy="82" rx="15" ry="3" fill="#DBEAFE" opacity="0.8"/>
  <rect x="40" y="82" width="2" height="8" rx="1" fill="#3B82F6" opacity="0.6"/>
  <rect x="58" y="82" width="2" height="8" rx="1" fill="#10B981" opacity="0.6"/>
  
  <!-- Mixed wall art -->
  <circle cx="15" cy="25" r="6" fill="#FBBF24" opacity="0.6"/>
  <rect x="35" y="15" width="10" height="12" rx="1" fill="#EC4899" opacity="0.6"/>
  <polygon points="85,20 90,30 80,30" fill="#8B5CF6" opacity="0.6"/>
  
  <!-- Playful accents -->
  <circle cx="90" cy="25" r="2" fill="#EF4444" opacity="0.7"/>
  <rect x="18" y="85" width="4" height="4" rx="1" fill="#06B6D4" opacity="0.7"/>
  <circle cx="95" cy="85" r="3" fill="#10B981" opacity="0.6"/>
</svg>