<svg width="120" height="120" viewBox="0 0 120 120" fill="none" xmlns="http://www.w3.org/2000/svg">
  <!-- Industrial Style Illustration -->
  <defs>
    <linearGradient id="industrialGradient" x1="0%" y1="0%" x2="100%" y2="100%">
      <stop offset="0%" style="stop-color:#374151;stop-opacity:1" />
      <stop offset="100%" style="stop-color:#6B7280;stop-opacity:1" />
    </linearGradient>
  </defs>
  
  <!-- Background Circle -->
  <circle cx="60" cy="60" r="58" fill="url(#industrialGradient)" stroke="#9CA3AF" stroke-width="2"/>
  
  <!-- Raw concrete-style sofa -->
  <rect x="25" y="48" width="65" height="30" rx="1" fill="#E5E7EB" opacity="0.9"/>
  <rect x="25" y="72" width="65" height="6" rx="1" fill="#D1D5DB"/>
  
  <!-- Metal pipe coffee table -->
  <rect x="40" y="82" width="40" height="4" rx="1" fill="#F3F4F6" opacity="0.8"/>
  <rect x="42" y="82" width="3" height="12" rx="1.5" fill="#9CA3AF"/>
  <rect x="75" y="82" width="3" height="12" rx="1.5" fill="#9CA3AF"/>
  
  <!-- Exposed brick wall pattern -->
  <rect x="15" y="20" width="8" height="4" fill="#DC2626" opacity="0.6"/>
  <rect x="25" y="20" width="8" height="4" fill="#EF4444" opacity="0.6"/>
  <rect x="20" y="26" width="8" height="4" fill="#DC2626" opacity="0.5"/>
  <rect x="30" y="26" width="8" height="4" fill="#EF4444" opacity="0.5"/>
  
  <!-- Industrial light fixture -->
  <circle cx="75" cy="25" r="8" fill="#F3F4F6" opacity="0.7"/>
  <rect x="72" y="15" width="6" height="8" rx="3" fill="#6B7280" opacity="0.8"/>
  <line x1="75" y1="15" x2="75" y2="10" stroke="#9CA3AF" stroke-width="2"/>
  
  <!-- Metal rivets/bolts -->
  <circle cx="20" cy="85" r="2" fill="#9CA3AF" opacity="0.8"/>
  <circle cx="95" cy="35" r="1.5" fill="#9CA3AF" opacity="0.8"/>
  <circle cx="88" cy="80" r="2" fill="#9CA3AF" opacity="0.8"/>
  
  <!-- Raw steel accents -->
  <line x1="85" y1="60" x2="105" y2="60" stroke="#F3F4F6" stroke-width="3" opacity="0.6"/>
  <line x1="85" y1="55" x2="105" y2="55" stroke="#F3F4F6" stroke-width="1" opacity="0.4"/>
</svg>