<svg width="120" height="120" viewBox="0 0 120 120" fill="none" xmlns="http://www.w3.org/2000/svg">
  <!-- Rustic Style Illustration -->
  <defs>
    <linearGradient id="rusticGradient" x1="0%" y1="0%" x2="100%" y2="100%">
      <stop offset="0%" style="stop-color:#451A03;stop-opacity:1" />
      <stop offset="50%" style="stop-color:#92400E;stop-opacity:1" />
      <stop offset="100%" style="stop-color:#D97706;stop-opacity:1" />
    </linearGradient>
  </defs>
  
  <!-- Background Circle -->
  <circle cx="60" cy="60" r="58" fill="url(#rusticGradient)" stroke="#A16207" stroke-width="2"/>
  
  <!-- Rustic wooden sofa -->
  <rect x="25" y="48" width="65" height="30" rx="3" fill="#FEF3C7" opacity="0.9"/>
  <rect x="25" y="72" width="65" height="6" rx="2" fill="#F59E0B" opacity="0.8"/>
  
  <!-- Chunky wooden coffee table -->
  <rect x="40" y="80" width="35" height="8" rx="2" fill="#92400E" opacity="0.8"/>
  <rect x="42" y="80" width="6" height="12" rx="3" fill="#451A03" opacity="0.9"/>
  <rect x="67" y="80" width="6" height="12" rx="3" fill="#451A03" opacity="0.9"/>
  
  <!-- Wood grain details -->
  <line x1="45" y1="84" x2="70" y2="84" stroke="#451A03" stroke-width="1" opacity="0.5"/>
  <line x1="47" y1="86" x2="68" y2="86" stroke="#451A03" stroke-width="1" opacity="0.3"/>
  
  <!-- Stone fireplace/wall -->
  <rect x="15" y="20" width="12" height="15" rx="2" fill="#78716C" opacity="0.7"/>
  <rect x="17" y="22" width="3" height="4" fill="#A8A29E" opacity="0.6"/>
  <rect x="22" y="24" width="3" height="3" fill="#A8A29E" opacity="0.6"/>
  <rect x="19" y="28" width="4" height="3" fill="#A8A29E" opacity="0.6"/>
  
  <!-- Wrought iron lantern -->
  <rect x="80" y="22" width="12" height="16" rx="2" fill="#451A03" opacity="0.8"/>
  <circle cx="86" cy="30" r="4" fill="#FEF3C7" opacity="0.6"/>
  <line x1="86" y1="18" x2="86" y2="14" stroke="#451A03" stroke-width="2"/>
  
  <!-- Natural textures -->
  <circle cx="20" cy="75" r="6" fill="#059669" opacity="0.6"/>
  <line x1="20" y1="69" x2="20" y2="60" stroke="#16A34A" stroke-width="2"/>
  <path d="M18 62 Q20 60 22 62" fill="none" stroke="#16A34A" stroke-width="1"/>
  
  <!-- Rustic accents -->
  <rect x="95" y="70" width="8" height="5" rx="1" fill="#92400E" opacity="0.7"/>
  <circle cx="15" cy="50" r="3" fill="#D97706" opacity="0.6"/>
  
  <!-- Country elements -->
  <path d="M85 85 Q87 82 89 85 Q87 88 85 85" fill="#EF4444" opacity="0.5"/>
  <circle cx="25" cy="30" r="2" fill="#F59E0B" opacity="0.7"/>
</svg>