<svg width="120" height="120" viewBox="0 0 120 120" fill="none" xmlns="http://www.w3.org/2000/svg">
  <!-- Scandinavian Style Illustration -->
  <defs>
    <linearGradient id="scandinavianGradient" x1="0%" y1="0%" x2="100%" y2="100%">
      <stop offset="0%" style="stop-color:#FEF3C7;stop-opacity:1" />
      <stop offset="100%" style="stop-color:#D97706;stop-opacity:1" />
    </linearGradient>
  </defs>
  
  <!-- Background Circle -->
  <circle cx="60" cy="60" r="58" fill="url(#scandinavianGradient)" stroke="#F59E0B" stroke-width="2"/>
  
  <!-- Light wood sofa -->
  <rect x="28" y="48" width="60" height="28" rx="4" fill="#FFFFFF" opacity="0.95"/>
  <rect x="28" y="70" width="60" height="6" rx="2" fill="#FEF3C7"/>
  
  <!-- Natural wood coffee table -->
  <ellipse cx="55" cy="82" rx="18" ry="4" fill="#D97706" opacity="0.7"/>
  <rect x="42" y="82" width="4" height="10" rx="2" fill="#92400E" opacity="0.8"/>
  <rect x="64" y="82" width="4" height="10" rx="2" fill="#92400E" opacity="0.8"/>
  
  <!-- Cozy textiles -->
  <rect x="35" y="55" width="12" height="8" rx="2" fill="#EF4444" opacity="0.6"/>
  <rect x="70" y="58" width="10" height="6" rx="1" fill="#DC2626" opacity="0.6"/>
  
  <!-- Natural elements -->
  <circle cx="20" cy="85" r="6" fill="#10B981" opacity="0.6"/>
  <line x1="20" y1="79" x2="20" y2="70" stroke="#059669" stroke-width="2"/>
  <path d="M18 72 Q20 70 22 72" fill="none" stroke="#059669" stroke-width="1"/>
  
  <!-- Simple pendant light -->
  <circle cx="85" cy="25" r="6" fill="#FFFFFF" opacity="0.8"/>
  <line x1="85" y1="19" x2="85" y2="10" stroke="#D97706" stroke-width="2"/>
  
  <!-- Hygge candles -->
  <rect x="15" y="30" width="3" height="8" rx="1.5" fill="#F59E0B" opacity="0.8"/>
  <ellipse cx="16.5" cy="28" rx="2" ry="1" fill="#EF4444" opacity="0.6"/>
  
  <rect x="25" y="35" width="3" height="6" rx="1.5" fill="#F59E0B" opacity="0.8"/>
  <ellipse cx="26.5" cy="33" rx="2" ry="1" fill="#EF4444" opacity="0.6"/>
  
  <!-- Natural wood grain -->
  <line x1="50" y1="92" x2="65" y2="92" stroke="#92400E" stroke-width="1" opacity="0.4"/>
  <line x1="52" y1="94" x2="63" y2="94" stroke="#92400E" stroke-width="1" opacity="0.3"/>
</svg>