<svg width="120" height="120" viewBox="0 0 120 120" fill="none" xmlns="http://www.w3.org/2000/svg">
  <!-- Elegant & Refined Ambiance -->
  <defs>
    <linearGradient id="elegantGradient" x1="0%" y1="0%" x2="100%" y2="100%">
      <stop offset="0%" style="stop-color:#E5E7EB;stop-opacity:1" />
      <stop offset="100%" style="stop-color:#9CA3AF;stop-opacity:1" />
    </linearGradient>
    <filter id="softGlow">
      <feGaussianBlur stdDeviation="2" result="coloredBlur"/>
      <feMerge> 
        <feMergeNode in="coloredBlur"/>
        <feMergeNode in="SourceGraphic"/>
      </feMerge>
    </filter>
  </defs>
  
  <circle cx="60" cy="60" r="58" fill="url(#elegantGradient)" stroke="#D1D5DB" stroke-width="2"/>
  
  <!-- Elegant chandelier -->
  <circle cx="60" cy="25" r="8" fill="#F3F4F6" filter="url(#softGlow)"/>
  <line x1="60" y1="17" x2="60" y2="12" stroke="#9CA3AF" stroke-width="2"/>
  <circle cx="55" cy="28" r="2" fill="#E5E7EB"/>
  <circle cx="65" cy="28" r="2" fill="#E5E7EB"/>
  <circle cx="60" cy="32" r="2" fill="#E5E7EB"/>
  
  <!-- Sophisticated seating -->
  <path d="M30 50 Q25 45 30 40 L80 40 Q85 45 85 50 L85 70 Q85 75 80 75 L30 75 Q25 75 30 70 Z" fill="#FFFFFF" opacity="0.95"/>
  <rect x="35" y="55" width="50" height="15" rx="8" fill="#F8FAFC" opacity="0.8"/>
  
  <!-- Elegant side table -->
  <circle cx="90" cy="70" r="8" fill="#F3F4F6" opacity="0.9"/>
  <rect x="88" y="70" width="4" height="15" rx="2" fill="#9CA3AF"/>
  
  <!-- Refined artwork -->
  <rect x="15" y="30" width="18" height="24" rx="2" fill="#FFFFFF" opacity="0.7"/>
  <rect x="17" y="32" width="14" height="16" fill="#E5E7EB" opacity="0.8"/>
  <rect x="19" y="34" width="10" height="8" fill="#9CA3AF" opacity="0.6"/>
  
  <!-- Crystal elements -->
  <circle cx="20" cy="75" r="3" fill="#F3F4F6" filter="url(#softGlow)"/>
  <circle cx="95" cy="40" r="2" fill="#F3F4F6" filter="url(#softGlow)"/>
  
  <!-- Silk curtains -->
  <path d="M100 15 Q105 20 100 25 Q105 30 100 35 Q105 40 100 45" fill="none" stroke="#E5E7EB" stroke-width="3" opacity="0.6"/>
  
  <!-- Marble accents -->
  <rect x="45" y="85" width="30" height="4" rx="2" fill="#F8FAFC" opacity="0.8"/>
  <line x1="48" y1="87" x2="72" y2="87" stroke="#E5E7EB" stroke-width="1" opacity="0.5"/>
</svg>