<svg width="120" height="120" viewBox="0 0 120 120" fill="none" xmlns="http://www.w3.org/2000/svg">
  <!-- Vibrant & Energetic Ambiance -->
  <defs>
    <linearGradient id="vibrantGradient" x1="0%" y1="0%" x2="100%" y2="100%">
      <stop offset="0%" style="stop-color:#EF4444;stop-opacity:1" />
      <stop offset="25%" style="stop-color:#F59E0B;stop-opacity:1" />
      <stop offset="50%" style="stop-color:#10B981;stop-opacity:1" />
      <stop offset="75%" style="stop-color:#3B82F6;stop-opacity:1" />
      <stop offset="100%" style="stop-color:#8B5CF6;stop-opacity:1" />
    </linearGradient>
    <filter id="energyGlow">
      <feGaussianBlur stdDeviation="3" result="coloredBlur"/>
      <feMerge> 
        <feMergeNode in="coloredBlur"/>
        <feMergeNode in="SourceGraphic"/>
      </feMerge>
    </filter>
  </defs>
  
  <circle cx="60" cy="60" r="58" fill="url(#vibrantGradient)" stroke="#F59E0B" stroke-width="2"/>
  
  <!-- Energetic lighting -->
  <circle cx="25" cy="25" r="6" fill="#FBBF24" filter="url(#energyGlow)"/>
  <circle cx="95" cy="30" r="5" fill="#06B6D4" filter="url(#energyGlow)"/>
  <circle cx="85" cy="85" r="4" fill="#EF4444" filter="url(#energyGlow)"/>
  
  <!-- Dynamic seating -->
  <path d="M35 55 Q30 50 35 45 L75 45 Q80 50 80 55 L80 70 Q80 75 75 75 L35 75 Q30 75 35 70 Z" fill="#FFFFFF" opacity="0.9"/>
  <circle cx="45" cy="60" r="8" fill="#EF4444" opacity="0.8"/>
  <circle cx="65" cy="62" r="6" fill="#10B981" opacity="0.8"/>
  
  <!-- Colorful accents -->
  <rect x="15" y="50" width="12" height="20" rx="6" fill="#8B5CF6" opacity="0.7"/>
  <rect x="90" y="55" width="8" height="15" rx="4" fill="#F59E0B" opacity="0.7"/>
  
  <!-- Vibrant artwork -->
  <rect x="20" y="20" width="15" height="20" rx="2" fill="#10B981" opacity="0.8"/>
  <circle cx="27" cy="25" r="4" fill="#FBBF24"/>
  <rect x="24" y="32" width="6" height="6" fill="#EF4444"/>
  
  <!-- Energy elements -->
  <polygon points="75,25 80,35 70,35" fill="#06B6D4" opacity="0.8"/>
  <circle cx="105" cy="65" r="5" fill="#8B5CF6" opacity="0.7"/>
  
  <!-- Dynamic patterns -->
  <path d="M15 80 Q20 75 25 80 Q30 85 35 80" fill="none" stroke="#FBBF24" stroke-width="3" opacity="0.7"/>
  <path d="M85 20 Q90 15 95 20 Q100 25 105 20" fill="none" stroke="#EF4444" stroke-width="2" opacity="0.7"/>
  
  <!-- Playful furniture -->
  <ellipse cx="55" cy="85" rx="20" ry="6" fill="#06B6D4" opacity="0.6"/>
  <rect x="48" y="85" width="4" height="10" rx="2" fill="#8B5CF6"/>
  <rect x="63" y="85" width="4" height="10" rx="2" fill="#10B981"/>
</svg>