<svg width="120" height="120" viewBox="0 0 120 120" fill="none" xmlns="http://www.w3.org/2000/svg">
  <!-- Cozy & Comfortable Ambiance -->
  <defs>
    <linearGradient id="cozyGradient" x1="0%" y1="0%" x2="100%" y2="100%">
      <stop offset="0%" style="stop-color:#FEF3C7;stop-opacity:1" />
      <stop offset="100%" style="stop-color:#F59E0B;stop-opacity:1" />
    </linearGradient>
    <filter id="glow">
      <feMorphology operator="dilate" radius="2"/>
      <feGaussianBlur stdDeviation="3" result="coloredBlur"/>
      <feMerge> 
        <feMergeNode in="coloredBlur"/>
        <feMergeNode in="SourceGraphic"/>
      </feMerge>
    </filter>
  </defs>
  
  <circle cx="60" cy="60" r="58" fill="url(#cozyGradient)" stroke="#F59E0B" stroke-width="2"/>
  
  <!-- Fireplace with warm glow -->
  <rect x="15" y="40" width="20" height="25" rx="3" fill="#DC2626" opacity="0.8"/>
  <path d="M20 45 Q22 42 24 45 Q26 42 28 45 Q26 48 24 45 Q22 48 20 45" fill="#F59E0B" filter="url(#glow)"/>
  
  <!-- Cozy reading chair -->
  <path d="M45 50 Q40 45 45 40 L75 40 Q80 45 80 50 L80 70 Q80 75 75 75 L45 75 Q40 75 45 70 Z" fill="#FFFFFF" opacity="0.9"/>
  <circle cx="55" cy="58" r="8" fill="#EF4444" opacity="0.7"/>
  <circle cx="70" cy="60" r="6" fill="#DC2626" opacity="0.7"/>
  
  <!-- Warm throw blanket -->
  <path d="M50 65 Q45 67 50 70 Q65 72 70 68 Q75 65 70 62 Q55 60 50 65" fill="#B91C1C" opacity="0.6"/>
  
  <!-- Soft lighting -->
  <circle cx="85" cy="25" r="8" fill="#FBBF24" opacity="0.8" filter="url(#glow)"/>
  <line x1="85" y1="17" x2="85" y2="12" stroke="#F59E0B" stroke-width="2"/>
  
  <!-- Candles -->
  <rect x="20" y="20" width="3" height="12" rx="1.5" fill="#F59E0B"/>
  <ellipse cx="21.5" cy="18" rx="2" ry="1" fill="#EF4444" filter="url(#glow)"/>
  
  <!-- Book on side table -->
  <rect x="85" y="70" width="8" height="12" rx="1" fill="#7C2D12" opacity="0.8"/>
  <rect x="87" y="72" width="4" height="8" fill="#FEF3C7" opacity="0.6"/>
  
  <!-- Warm carpet -->
  <ellipse cx="60" cy="85" rx="30" ry="8" fill="#DC2626" opacity="0.4"/>
  
  <!-- Cozy plants -->
  <circle cx="25" cy="75" r="5" fill="#16A34A" opacity="0.6"/>
  <line x1="25" y1="70" x2="25" y2="62" stroke="#15803D" stroke-width="2"/>
</svg>