<svg width="120" height="120" viewBox="0 0 120 120" fill="none" xmlns="http://www.w3.org/2000/svg">
  <!-- Traditional Style Illustration -->
  <defs>
    <linearGradient id="traditionalGradient" x1="0%" y1="0%" x2="100%" y2="100%">
      <stop offset="0%" style="stop-color:#8B5A2B;stop-opacity:1" />
      <stop offset="100%" style="stop-color:#D2B48C;stop-opacity:1" />
    </linearGradient>
  </defs>
  
  <!-- Background Circle -->
  <circle cx="60" cy="60" r="58" fill="url(#traditionalGradient)" stroke="#E5E7EB" stroke-width="2"/>
  
  <!-- Classic wingback chair -->
  <path d="M25 45 Q25 40 30 40 L85 40 Q90 40 90 45 L90 75 Q90 80 85 80 L30 80 Q25 80 25 75 Z" fill="#FFFFFF" opacity="0.9"/>
  <path d="M20 50 Q20 45 25 45 L25 70 Q20 70 20 65 Z" fill="#F8F9FA" opacity="0.8"/>
  <path d="M90 45 Q95 45 95 50 L95 65 Q95 70 90 70 Z" fill="#F8F9FA" opacity="0.8"/>
  
  <!-- Traditional legs -->
  <rect x="32" y="80" width="6" height="15" rx="3" fill="#8B5A2B" opacity="0.8"/>
  <rect x="77" y="80" width="6" height="15" rx="3" fill="#8B5A2B" opacity="0.8"/>
  
  <!-- Ornate coffee table -->
  <ellipse cx="57" cy="88" rx="25" ry="4" fill="#FFFFFF" opacity="0.7"/>
  <rect x="35" y="88" width="4" height="10" rx="2" fill="#8B5A2B" opacity="0.6"/>
  <rect x="77" y="88" width="4" height="10" rx="2" fill="#8B5A2B" opacity="0.6"/>
  
  <!-- Classic wall sconce -->
  <circle cx="20" cy="30" r="8" fill="#FFFFFF" opacity="0.5"/>
  <path d="M20 22 L20 38 M15 30 L25 30" stroke="#FFFFFF" stroke-width="1.5" opacity="0.6"/>
  
  <!-- Traditional pattern elements -->
  <circle cx="75" cy="25" r="3" fill="#FFFFFF" opacity="0.4"/>
  <circle cx="85" cy="20" r="2" fill="#FFFFFF" opacity="0.4"/>
  <circle cx="82" cy="32" r="2.5" fill="#FFFFFF" opacity="0.4"/>
</svg>